# xmcd CD database file
#
# Track frame offsets:
#	150
#	22080
#	53570
#	81727
#	146765
#	185145
#	212207
#	252602
#
# Disc length: 3760 seconds
#
# Revision: 0
# Processed by: cddbd v1.5.2PL0 Copyright (c) Steve Scherf et al.
# Submitted via: CDex 1.51
#
DISCID=810eae08
DTITLE=Banda de Música da PMES - Policia Militar do Estado de São Paulo - 166 Anos
DYEAR=1900
DGENRE=Jazz
TTITLE0=Charleston Forever
TTITLE1=The Lion King
TTITLE2=Gerogia on my Mind
TTITLE3=The Phantom of the Opera
TTITLE4=Selection from Pocahontas
TTITLE5=Greatest Love of All
TTITLE6=Indiana Jones Selection
TTITLE7=Salvador Rosa
EXTD=
EXTT0=
EXTT1=
EXTT2=
EXTT3=
EXTT4=
EXTT5=
EXTT6=
EXTT7=
PLAYORDER=
